<svg xmlns="http://www.w3.org/2000/svg" viewBox="0 0 512 512">
  <defs>
    <radialGradient id="m" cx="35%" cy="25%" r="85%"><stop offset="0" stop-color="#e6f0ff"/><stop offset="1" stop-color="#9fb7e8"/></radialGradient>
    <clipPath id="mc"><rect x="8" y="8" width="496" height="496" rx="120"/></clipPath>
  </defs>
  <rect x="8" y="8" width="496" height="496" rx="120" fill="url(#m)"/>
  <g clip-path="url(#mc)">
    <path d="M300 150C312 118 336 102 360 96" fill="none" stroke="#4b2c2c" stroke-width="12" stroke-linecap="round"/>
    <path d="M372 60Q372 90 402 90Q372 90 372 120Q372 90 342 90Q372 90 372 60Z" fill="#ffd23f" stroke="#4b2c2c" stroke-width="5" stroke-linejoin="round"/>
    <g stroke="#fff" stroke-width="34" stroke-linejoin="round" fill="#fff"><circle cx="236" cy="296" r="136" fill="#3d4a66" stroke="#4b2c2c" stroke-width="12"/></g><circle cx="236" cy="296" r="136" fill="#3d4a66" stroke="#4b2c2c" stroke-width="12"/>
    <rect x="262" y="140" width="56" height="40" rx="10" fill="#8a96b3" stroke="#4b2c2c" stroke-width="10" transform="rotate(35 290 160)"/>
    <ellipse cx="180" cy="232" rx="34" ry="20" fill="#fff" opacity=".35" transform="rotate(-30 180 232)"/>
    <ellipse cx="200" cy="300" rx="11.700000000000001" ry="15.3" fill="#fff"/><circle cx="196.4" cy="294.6" r="4.5" fill="#4b2c2c"/><ellipse cx="272" cy="300" rx="11.700000000000001" ry="15.3" fill="#fff"/><circle cx="268.4" cy="294.6" r="4.5" fill="#4b2c2c"/>
    <ellipse cx="180.2" cy="321.6" rx="16.2" ry="9" fill="#ff8fa3" opacity=".75"/>
    <ellipse cx="291.8" cy="321.6" rx="16.2" ry="9" fill="#ff8fa3" opacity=".75"/><path d="M223.4 323.4q6.3 9 12.6 0q6.3 9 12.6 0" fill="none" stroke="#fff" stroke-width="5.4" stroke-linecap="round" stroke-linejoin="round"/>
    <g stroke="#fff" stroke-width="34" stroke-linejoin="round" fill="#fff"><path d="M392 250V430" stroke="#4b2c2c" stroke-width="12" stroke-linecap="round"/><path d="M398 256L470 282L398 312Z" fill="#ff5d5d" stroke="#4b2c2c" stroke-width="10" stroke-linejoin="round"/></g><path d="M392 250V430" stroke="#4b2c2c" stroke-width="12" stroke-linecap="round"/><path d="M398 256L470 282L398 312Z" fill="#ff5d5d" stroke="#4b2c2c" stroke-width="10" stroke-linejoin="round"/>
    <path d="M90 84Q90 110 116 110Q90 110 90 136Q90 110 64 110Q90 110 90 84Z" fill="#fff" stroke="#4b2c2c" stroke-width="5" stroke-linejoin="round"/><path d="M84 402Q84 420 102 420Q84 420 84 438Q84 420 66 420Q84 420 84 402Z" fill="#ffd23f" stroke="#4b2c2c" stroke-width="5" stroke-linejoin="round"/><path d="M456 444Q456 460 472 460Q456 460 456 476Q456 460 440 460Q456 460 456 444Z" fill="#fff" stroke="#4b2c2c" stroke-width="5" stroke-linejoin="round"/></g>
  <rect x="8" y="8" width="496" height="496" rx="120" fill="none" stroke="#4b2c2c" stroke-width="12"/>
</svg>